<?xml version="1.0" encoding="UTF-8" standalone="no"?>
<svg
   xmlns:dc="http://purl.org/dc/elements/1.1/"
   xmlns:cc="http://creativecommons.org/ns#"
   xmlns:rdf="http://www.w3.org/1999/02/22-rdf-syntax-ns#"
   xmlns:svg="http://www.w3.org/2000/svg"
   xmlns="http://www.w3.org/2000/svg"
   xmlns:sodipodi="http://sodipodi.sourceforge.net/DTD/sodipodi-0.dtd"
   xmlns:inkscape="http://www.inkscape.org/namespaces/inkscape"
   id="Layer_1"
   space="preserve"
   sodipodi:docname="duck.svg"
   viewBox="0 0 472.44095 332.59843"
   sodipodi:version="0.32"
   version="1.1"
   inkscape:version="1.0.2-2 (e86c870879, 2021-01-15)"
   width="125mm"
   height="88mm">
  <defs
     id="defs4456" />
  <sodipodi:namedview
     id="base"
     bordercolor="#666666"
     inkscape:pageshadow="2"
     inkscape:window-width="820"
     pagecolor="#ffffff"
     inkscape:zoom="0.29953636"
     inkscape:window-x="88"
     borderopacity="1.0"
     inkscape:current-layer="Layer_1"
     inkscape:cx="208.3315"
     inkscape:cy="176.825"
     inkscape:window-y="116"
     inkscape:window-height="510"
     inkscape:pageopacity="0.0"
     inkscape:document-rotation="0"
     showgrid="false"
     units="mm"
     inkscape:window-maximized="0" />
  <path
     id="path3"
     style="clip-rule:evenodd;fill-rule:evenodd;stroke-width:0.697919"
     d="m 242.69938,294.17249 c -4.55601,1.05316 -7.83135,0.21705 -12.30779,2.00931 -2.87124,1.14947 -5.70898,0.62533 -8.79099,0.335 -8.73794,-0.82355 -18.52207,-0.1675 -27.7974,-0.1675 -2.3157,0 -16.76331,-4.82262 -16.91266,-6.19473 -0.48995,-4.50297 14.04561,-6.12074 13.73085,-13.56126 -0.0984,-2.31848 -3.33815,-0.82703 -3.01431,-3.18111 0.26032,-1.88857 3.00872,-3.06247 4.52111,-3.51611 5.39561,-1.61848 11.69502,3.26067 17.08016,4.18611 4.72143,0.81099 9.62011,-0.18913 13.06156,-0.67 5.07038,-0.70769 8.17332,3.39817 12.05584,-2.00931 2.83844,-3.953 9.55939,-19.60732 6.36362,-22.43459 -2.7498,-2.43295 -15.09807,-0.98477 -19.25767,-1.67431 -16.86869,-2.79726 -33.22232,-7.94022 -48.72868,-15.06807 -7.51379,-3.45329 -14.76587,-7.83483 -20.59627,-13.89555 -7.42866,-7.72177 -15.84555,-13.32397 -22.27129,-21.4296 -7.79575,-9.83367 -13.2116,-19.00711 -14.40085,-32.14543 -1.33582,-14.74912 2.19286,-29.08227 13.06085,-39.51127 4.47157,-4.2908 9.98303,-9.10226 15.3221,-12.30571 2.5816,-1.54868 8.30105,-4.50018 8.62349,-7.95278 0.6693,-7.161339 -12.69864,-7.892759 -17.41516,-8.036529 -7.46774,-0.22752 -14.83706,1.19972 -22.60629,2.17681 -11.60709,1.459349 -5.26789,-6.55625 -0.67,-11.216949 12.66722,-12.832634 21.9265,-37.943749 43.37983,-37.837664 17.44448,0.08654 34.33411,14.936157 36.58769,32.981546 1.00221,8.022577 -0.0558,15.610337 -2.42806,23.271396 -1.11178,3.59148 -2.42457,7.41887 -3.68431,10.88264 -1.84111,5.06062 -6.59184,10.88195 0.75375,10.88195 18.78379,0 37.03436,0.31057 57.01786,1.50681 19.64152,1.17599 38.87965,9.29977 57.10091,15.90487 5.41934,1.96394 11.27069,6.36222 17.58197,6.36222 8.93057,0 18.61279,0.38874 27.46241,-1.08805 5.40119,-0.90171 15.70525,-1.92416 20.93128,-0.25125 11.45144,3.66547 -8.18171,10.60487 -12.6428,12.38875 -13.32118,5.32721 11.08574,6.4704 14.9878,8.87334 8.23684,5.07177 -7.97163,1.58707 -10.71655,2.17611 1.83065,1.43632 1.86136,4.22241 3.26487,4.60487 4.12121,1.12156 8.59836,1.85158 12.72655,2.67861 2.17471,0.4355 23.6734,2.50134 22.52253,5.77597 -0.7377,2.09934 -15.80158,3.92091 -18.42017,4.68793 -4.63418,1.35675 -9.06945,3.0506 -13.22835,5.02222 -5.13319,2.43364 -11.76272,1.90183 -16.74516,4.01862 -6.67559,2.83564 -13.16903,8.44062 -19.59197,12.72305 -4.65861,3.10714 -10.89102,3.98093 -16.07516,6.02793 -5.72224,2.25916 -10.61115,6.19682 -15.93907,8.59347 -10.34734,4.65581 -17.71108,10.00257 -27.84975,14.50973 -2.8831,1.28207 -8.29127,2.85378 -9.96278,5.19112 -0.85774,1.19902 -2.08608,6.22334 -2.84682,8.03583 -2.06234,4.91614 -7.25974,13.50054 -6.86542,18.75098 0.34267,4.56439 8.58789,13.1816 1.50681,15.40307 -2.40014,0.75305 -3.37304,-2.00303 -5.52612,-0.67 -0.6728,0.41666 0.33848,3.32419 -1.50681,4.52111 -0.2024,0.10469 -0.62813,0.24428 -0.85147,0.31406" />
  <path
     id="path5"
     style="clip-rule:evenodd;fill:#ff7f00;fill-rule:evenodd;stroke-width:0.697919"
     d="m 242.02938,292.16946 c -2.01629,0.44947 -3.96628,-0.24497 -6.02862,0 -3.00943,0.35734 -5.82623,2.44133 -8.53974,2.84612 -1.98348,0.29591 -6.32872,-1.25137 -8.87473,-1.17181 -10.49111,0.32802 -23.78716,2.59347 -32.82102,-2.00931 -2.88729,-1.47051 -6.66094,-2.94661 -1.67431,-4.52112 3.43515,-1.08456 7.37072,1.57312 11.72154,1.84251 7.72527,0.47807 17.45425,0.56252 24.7831,-1.00431 5.1625,-1.1041 8.54322,-3.61312 2.0093,-4.85541 -5.30697,-1.0092 -10.50926,-0.0837 -15.90765,-1.67361 -1.93464,-0.56951 -11.41307,-6.87869 -12.05655,-4.18612 -0.32663,1.36652 8.98571,5.56869 10.71654,6.02792 4.86449,1.29045 9.44214,2.47622 14.40086,2.17612 v 0.3343 c -5.55404,1.82157 -13.27582,0.92055 -19.59128,0.8368 -2.71142,-0.0363 -5.66849,0.69164 -8.20543,-0.5018 -4.26429,-2.00582 -2.5837,-0.56253 -1.3393,-4.52112 1.19553,-3.80296 3.3528,-5.08364 0.66929,-9.37584 6.21079,-3.56846 10.51764,3.50914 15.23836,5.52473 4.22171,1.80202 13.72736,2.71211 18.58697,2.34361 11.34886,-0.85845 15.15531,-14.63745 17.75017,-25.61502 1.13551,-4.80307 2.40154,-19.47193 11.05224,-15.57056 0.39154,0.17657 0.81657,-0.15424 1.17251,-0.1675 -1.50891,4.30616 2.814,9.09597 0.3343,13.39375 -4.15052,7.19485 -4.01862,-1.93113 -5.35862,-4.35291 -3.11412,1.44888 -1.38607,6.25126 -0.33431,8.37083 0.80749,1.62755 2.1447,0.0677 2.51181,2.34362 0.45644,2.83703 -2.82936,5.26998 -3.68361,7.70153 -0.603,1.71478 -1.87391,6.91428 -1.84251,7.86833 0.11726,3.59009 5.10528,8.25848 4.52182,11.38515 -0.53461,2.86356 -3.26905,2.50623 -5.19112,0.3343 -2.22078,-2.50971 0.43131,-9.86089 -2.01,-8.70653 -5.78576,2.7498 2.3799,11.49472 -1.98908,14.90754" />
  <path
     id="path7"
     style="clip-rule:evenodd;fill-rule:evenodd;stroke-width:0.697919"
     d="m 232.65633,290.82946 c -4.54345,-1.27719 2.19845,-4.54345 0,0" />
  <path
     id="path9"
     style="clip-rule:evenodd;fill-rule:evenodd;stroke-width:0.697919"
     d="m 235.50383,289.48946 c -1.01616,-0.5388 -1.74897,-1.22555 -2.0093,-2.34292 3.56637,-2.10771 5.40189,-0.24427 2.01001,2.34501" />
  <path
     id="path11"
     style="clip-rule:evenodd;fill-rule:evenodd;stroke-width:0.697919"
     d="m 229.47382,291.83446 c -5.2972,-1.89834 1.89834,-4.2922 0,0" />
  <path
     id="path13"
     style="clip-rule:evenodd;fill-rule:evenodd;stroke-width:0.697919"
     d="m 235.67134,282.45444 c -3.35978,0.64487 -2.03513,-2.39945 -0.335,-3.18181 2.93824,-1.34699 1.99604,2.345 0.335,3.18251" />
  <path
     id="path15"
     style="clip-rule:evenodd;fill-rule:evenodd;stroke-width:0.697919"
     d="m 238.51187,278.93693 c -4.35501,-2.65907 3.43376,-4.09679 0,0" />
  <path
     id="path17"
     style="clip-rule:evenodd;fill-rule:evenodd;stroke-width:0.697919"
     d="m 240.68937,274.08639 c -3.47563,-2.82657 2.63116,-3.2523 0,0" />
  <path
     id="path19"
     style="clip-rule:evenodd;fill:#996633;fill-rule:evenodd;stroke-width:0.697919"
     d="m 228.13382,277.6039 c -4.18403,1.03641 -11.98257,1.03292 -15.07086,-1.0043 3.44074,-0.52484 8.16565,0.69512 10.54904,0.1675 1.55427,-0.34408 -0.40479,-2.46994 2.34431,-2.00931 1.77272,0.29312 2.56834,1.68198 2.17053,2.8475" />
  <path
     id="path21"
     style="clip-rule:evenodd;fill-rule:evenodd;stroke-width:0.697919"
     d="m 243.03438,271.07138 c -5.82064,-1.80062 2.40084,-4.55043 0,0" />
  <path
     id="path23"
     style="clip-rule:evenodd;fill-rule:evenodd;stroke-width:0.697919"
     d="m 244.87689,267.05137 c -1.78738,-0.81935 -3.67524,-3.61661 0,-3.18112 -0.84658,-1.58566 0.24078,-7.18158 2.17681,-5.85972 2.75538,1.88159 -0.21426,6.34338 -1.67431,6.02723 0.0614,0.2338 -0.17518,0.21496 -0.335,0.1668 0.94219,1.63313 0.0488,1.94719 -0.1675,2.84751" />
  <path
     id="path25"
     style="clip-rule:evenodd;fill:#ffffcc;fill-rule:evenodd;stroke-width:0.697919"
     d="m 259.44943,244.45276 c -1.82855,0.3364 -2.16844,-0.83192 -1.67431,-3.01291 0.68326,-3.01152 1.78946,-1.33024 3.34931,-2.84612 0.63231,-0.61486 -0.21426,-1.89345 0.1668,-2.1761 0.32244,-0.24009 2.28429,-0.29592 2.51251,-0.67001 0.85077,-1.39583 2.43295,-1.23671 0.6693,-3.01292 2.64093,-1.47749 13.94303,-6.33918 13.22906,-9.87833 -0.79424,-3.93766 -5.08714,0.50529 -2.67932,-3.51541 2.37084,-3.9593 4.33059,-1.04759 3.18181,-5.02293 -0.31475,-1.09084 -2.21868,-0.50809 -2.5118,-1.84181 -0.0475,-0.21704 1.50541,-1.85297 1.67361,-2.67861 0.58555,-2.87124 0.26241,-4.08562 -0.3343,-6.86403 -1.0071,-4.68652 -1.47471,-2.06165 1.50679,-3.51611 0.98827,-0.48157 2.43226,-0.13331 3.34932,-0.33431 1.18646,-0.26032 -0.13261,-1.99464 2.17681,-2.17611 3.28789,-0.25823 7.60522,5.27697 9.37793,5.02223 3.60754,-0.51786 0.13191,-4.24544 0.1668,-6.52903 0.0551,-3.60266 0.89962,-1.21718 3.85182,0.5025 4.26917,2.48669 2.99756,2.35408 4.68862,-0.1675 0.71117,-1.06014 -2.23893,-2.37851 -0.1668,-2.84612 1.38536,-0.31267 1.95067,1.83344 3.0136,2.34431 4.75842,2.28709 1.75109,1.78598 3.51682,-1.8425 0.88147,-1.8111 -1.7092,-2.42248 0.83681,-2.51181 0.82214,-0.0286 3.18808,2.7826 3.85181,3.18182 3.07014,1.84599 7.9123,2.64161 11.38654,3.0136 5.77527,0.61836 15.20695,-0.25823 19.92697,2.67861 -4.05491,3.44912 -9.73666,7.77482 -15.57266,11.21696 -7.36583,4.34524 -15.75551,5.83459 -23.77808,9.71014 -16.47089,7.96325 -28.168,16.03119 -45.73462,23.79205" />
  <path
     id="path27"
     style="clip-rule:evenodd;fill:#d59758;fill-rule:evenodd;stroke-width:0.697919"
     d="m 388.04793,186.69301 c -7.72946,1.55427 -17.86812,-2.28708 -24.9506,0.16681 4.87217,0.61067 9.98303,0.73002 14.23406,2.0093 v 0.33431 c -3.66897,0.88636 -24.16893,0.92195 -24.9506,-1.1725 -0.27429,1.08595 -1.55915,1.7448 -3.68362,1.8418 0.0558,0.1675 0,0.22333 -0.1675,0.1675 1.62685,0.47668 4.09958,0.69931 5.86112,0.83681 -2.48319,0.92753 -7.06154,1.02803 -10.21473,1.5075 6.268,1.49006 13.55985,0.54368 19.25697,1.50611 v 0.335 c -4.93079,1.24578 -12.88777,-2.27592 -17.24767,0.1668 4.2601,0.83192 8.2815,1.57171 12.22405,2.34361 -0.0125,0.007 -0.39851,0.18356 -0.1675,0.335 -6.48227,1.49355 -14.91871,-0.64348 -21.60128,-1.34 -3.14761,-0.32802 -7.21439,0.18844 -10.04724,-0.6693 -5.29511,-1.60312 -1.41328,-0.402 1.1725,-1.84181 2.90684,-1.61777 4.68583,-2.46295 9.54474,-3.85112 4.19449,-1.19762 3.51542,-2.63464 6.02862,-4.18611 2.17611,-1.3435 5.75573,-0.46691 8.03793,-1.84181 2.94732,-1.7755 0.86612,-3.29208 4.52181,-3.85042 4.93917,-0.75445 13.03224,2.83984 17.24767,3.68292 2.93126,0.58625 15.88254,1.97511 15.23766,3.34861 -0.007,0.0279 -0.29312,0.13261 -0.32802,0.16751" />
  <path
     id="path29"
     style="clip-rule:evenodd;fill:#e4bc96;fill-rule:evenodd;stroke-width:0.697919"
     d="m 241.02438,246.46277 c -15.31234,1.1048 -29.19534,-4.08353 -43.70507,-7.19834 -13.29256,-2.85448 -25.30443,-8.97104 -35.83463,-15.90487 -11.59941,-7.63732 -23.65107,-19.83694 -33.32283,-31.30793 -10.39619,-12.33082 -12.54299,-26.90755 -9.87974,-42.02238 3.6592,-20.76936 18.78658,-25.8188 32.65353,-39.67877 7.09853,-7.09504 2.26335,-9.87694 -4.77237,-13.895559 -1.846,-1.05455 -12.54788,-1.06433 -12.9778,-1.84181 -1.11737,-2.02186 3.68153,-3.39607 3.85181,-5.190418 0.29871,-3.157386 -4.10096,-4.890311 -5.19112,-7.617782 -1.28346,-3.212522 -2.66674,-7.402125 -2.34431,-10.463894 0.96732,-9.180423 11.55894,-13.814602 19.42448,-17.746676 6.79354,-3.396072 17.30629,-0.146563 23.61058,3.682917 7.62546,4.632784 8.19218,11.599408 9.54474,17.914176 1.51169,7.058747 3.31302,9.336056 2.34431,16.909867 -0.1675,-0.0558 -0.22333,0 -0.1675,0.16751 -2.38549,-1.34001 -2.47761,4.04793 -3.68362,5.85972 -0.2987,-0.16681 -0.30359,-0.54996 -0.50249,-0.6693 -1.44191,1.39165 -2.10213,4.403859 -4.01862,6.027219 -0.21566,-0.18914 -0.17169,-0.81726 -0.335,-1.0043 -2.37013,2.43574 -2.58509,6.84518 -5.02362,9.54264 0.24218,-1.58568 0.45155,-3.85321 0.1675,-5.35722 -2.33523,2.43922 -2.75189,7.47261 -4.35362,10.88195 -1.26532,2.69466 -1.02943,4.98314 -2.84681,2.84611 -1.2053,-1.41747 2.36665,-6.85287 -0.66999,-2.84611 -1.74969,2.30871 -2.04771,5.52472 -4.01862,7.70153 -3.85251,4.25451 -23.67969,23.54009 -17.24767,28.79612 0.94847,0.77469 4.78563,0.43341 6.02862,0.5025 -2.42317,3.73526 1.4112,2.78121 2.00931,4.85542 0.39153,1.35746 -2.44969,1.7106 -0.1675,4.18542 1.31697,1.42794 4.14633,0.65674 5.69362,1.6743 0.21287,0.13959 1.22624,3.50077 1.33931,3.68362 0.28335,0.45853 1.97232,-0.86821 2.34431,-0.1675 0.22961,0.43271 -0.81168,1.5766 -0.50251,2.00931 0.88357,1.23461 1.30302,3.02408 2.34431,4.35292 2.8154,3.59428 7.71689,7.65198 11.72154,8.37083 3.49588,0.62743 5.47169,-0.88635 9.04224,-1.1718 2.4469,-0.19541 4.97476,1.01617 8.37293,0.1668 3.67036,-0.91636 6.67699,-1.91579 9.37723,-0.50181 1.16344,0.60929 1.04758,2.83426 2.34431,3.68293 2.33314,1.52704 6.19055,0.47947 8.87474,1.0043 5.86112,1.14807 11.40748,2.00861 17.66641,2.00861 3.81692,0 6.58487,2.2473 9.79599,2.51181 1.68408,0.13888 3.71572,-1.49215 5.19112,-1.50681 0.57718,-0.006 2.7177,1.46284 3.85182,1.50681 7.23741,0.28265 17.16321,-2.26405 23.61059,3.34791 2.99057,2.60254 5.29231,11.26092 4.5218,13.89627 -0.3657,1.25136 -3.1497,2.88798 -3.0143,4.18542 0.17936,1.72246 3.87275,2.46504 3.85181,3.18181 -0.0642,2.15168 -5.21136,1.93951 -5.86043,4.18471 -0.94847,3.27813 2.80075,1.4768 3.01362,3.01362 -0.0601,-0.43271 1.43492,0.74817 1.1725,0.6693 -4.99779,2.8524 -8.05328,6.51926 -12.55904,9.20834 0.1333,-0.0796 -2.81541,0.99872 -3.01362,1.1718 -0.51087,0.44807 -1.18297,3.01781 -1.1725,3.01362 -3.21391,1.14598 -7.49425,-0.57858 -10.88474,-0.16751 -0.66582,0.0803 -2.34361,1.50751 -2.34361,1.50751 -3.28929,-0.11516 -11.62105,-6.01745 -12.89404,-1.8425 -2.52717,-1.37979 -5.24486,0.47179 -8.03793,0 -2.66605,-0.45016 -4.38085,-2.05049 -6.53043,-1.84181 1.08665,-0.10539 -1.67082,2.12237 -3.01431,2.34361 -4.36827,0.72025 -8.44133,-3.66058 -12.39155,-4.35223 -5.00547,-0.87728 -3.16366,0.2066 0.1675,2.17612 3.86717,2.28568 8.83425,3.29627 13.22835,3.68291 4.72212,0.41596 11.76412,0.36362 14.73586,0.33431 5.84855,-0.0837 19.96047,-1.73781 11.39003,7.5096" />
  <path
     id="path31"
     style="clip-rule:evenodd;fill:#8b5c29;fill-rule:evenodd;stroke-width:0.697919"
     d="m 338.98424,186.69301 c -9.19927,2.57462 -15.57406,2.87334 -20.59698,-3.51611 5.39771,2.12307 2.66326,-1.88927 1.00431,-4.68792 6.90102,-4.03607 10.45691,-5.94069 18.58767,-5.19042 5.08852,0.4697 13.84671,-1.5424 16.24266,1.67361 0.32174,0.43201 1.39374,0.93591 1.84181,1.34 -4.79122,1.98 -4.84636,3.84972 -7.36793,5.35722 -4.73887,2.84053 -8.15169,0.67699 -9.70805,5.02502" />
  <path
     id="path33"
     style="clip-rule:evenodd;fill:#d59758;fill-rule:evenodd;stroke-width:0.697919"
     d="m 318.89116,194.39106 c -2.80633,-1.73782 -6.49274,-3.47633 -10.04724,-6.86403 -2.44062,-2.32617 -4.03746,-5.29301 -6.36292,-8.20404 6.62255,-1.18786 15.81763,7.89416 21.76808,11.55196 -2.0449,0.97708 -3.03594,2.74281 -5.35303,3.52448" />
  <path
     id="path35"
     style="clip-rule:evenodd;fill:#8b5c29;fill-rule:evenodd;stroke-width:0.697919"
     d="m 304.8281,191.71105 c -0.99872,-0.41805 -18.5423,-12.61069 -19.08947,-9.20834 -0.55485,3.4547 13.93185,3.83715 12.22404,10.38015 -0.1668,-0.0558 -0.22263,0 -0.1668,0.1675 -2.89357,-1.68687 -12.39224,-8.03235 -12.22474,-4.18542 0.009,0.19192 4.90637,6.68815 5.69362,8.03653 -3.23136,-0.39921 -8.16984,-2.33174 -10.88474,-3.34861 -1.94929,-0.73002 -7.76783,-4.12959 -4.35362,1.00361 -0.1675,-0.0559 -0.22333,0 -0.1675,0.1675 -4.18402,-1.39166 -8.77842,-2.91033 -13.6478,-4.85542 -6.37828,-2.54741 -7.92067,-0.92615 -11.8053,-0.66931 -1.79016,0.11865 -3.18459,-0.4718 -4.85611,-0.6693 -0.86751,-0.1019 -1.11388,-1.64291 -2.00931,-1.67431 -1.03362,-0.037 -1.95068,1.37769 -3.01361,1.3393 -6.21915,-0.22193 -14.31571,-0.73421 -20.76447,-1.50611 -3.5552,-0.42572 -6.31408,-0.84936 -10.71655,-1.5075 -1.80621,-0.2701 -5.05084,-0.0991 -6.53043,-1.1718 -1.09224,-0.79214 0.10958,-2.7184 -1.5068,-3.85042 -4.98663,-3.49168 -19.28908,1.943 -25.9549,1.84181 -4.28243,-0.0656 -8.29337,-2.66047 -11.05154,-5.85973 -2.43085,-2.82029 -3.53077,-4.65023 -2.67931,-7.86904 4.06677,-2.60881 7.83903,0.12703 12.72585,1.33931 4.32152,1.0727 9.66408,1.14529 13.73085,0.1675 3.17064,-0.76212 4.94127,-1.58637 7.87043,-2.51111 3.28231,-1.03571 5.9372,-3.27533 9.04223,-3.85111 3.06876,-0.56881 7.97442,0.16331 11.55475,-0.16751 5.24137,-0.48365 11.45075,0.60371 17.75017,0 5.84995,-0.56112 7.39374,-2.05118 12.05653,-3.68361 3.25231,-1.1383 15.84625,-2.23822 15.23766,-3.34791 -1.22973,-2.24241 -5.69292,-0.65186 -7.36792,-2.67861 4.95592,-0.70909 10.46041,-1.37281 14.56835,-1.84181 4.51902,-0.51576 5.82553,-2.46854 9.54474,-3.34861 7.93115,-1.87601 16.86311,4.96638 22.77378,10.04514 2.23544,1.92067 5.54008,4.69629 6.86543,6.69723 1.90183,2.87193 0.68047,5.85134 1.00431,6.36222 1.12434,1.76922 7.21438,2.57951 7.03292,7.86834 -3.90137,-1.76225 -10.67117,-2.27242 -15.23766,-3.51612 -4.93149,-1.34349 -9.5887,-2.69256 -14.40155,-4.35222 -4.53996,-1.56543 -12.10121,-6.4711 -16.07516,-6.52902 -5.30767,-0.0775 -1.31139,1.32534 1.34001,2.51111 6.87449,3.09876 40.06751,12.2694 33.50707,24.30152" />
  <path
     id="path37"
     style="clip-rule:evenodd;fill:#d59758;fill-rule:evenodd;stroke-width:0.697919"
     d="m 350.03927,170.28495 c -1.77201,0.21356 -14.08958,3.39467 -12.05654,-0.8375 2.10073,-4.37595 12.12284,-0.95615 12.06003,0.8375" />
  <path
     id="path39"
     style="clip-rule:evenodd;fill:#8b5c29;fill-rule:evenodd;stroke-width:0.697919"
     d="m 322.07367,174.30496 c -1.01896,0.67 -2.2822,1.0364 -3.68362,1.33931 0.0607,-4.42551 8.70933,-8.71701 11.05225,-12.38876 3.49378,-5.47727 -0.37967,-5.25114 -3.18181,-9.20834 4.08351,-1.16553 14.2822,2.717 13.56405,5.69223 -1.01897,4.21542 -14.27942,12.66024 -17.74808,14.55858" />
  <path
     id="path41"
     style="clip-rule:evenodd;fill:#5a3d1c;fill-rule:evenodd;stroke-width:0.697919"
     d="m 351.04428,161.74243 c -2.73445,-0.4048 2.29545,-2.67024 2.3436,-4.52043 0.0608,-2.33594 -2.50622,-2.88729 -4.18611,-4.18542 4.72351,-0.98685 13.31768,-1.45795 17.91767,0 v 0.33501 c -4.38991,3.12667 -10.59441,5.33907 -16.07307,8.37502" />
  <path
     id="path43"
     style="clip-rule:evenodd;fill:#e4bc96;fill-rule:evenodd;stroke-width:0.697919"
     d="m 339.98924,165.92993 c -1.63731,0.74887 -3.14133,1.18507 -4.52111,1.84181 0.10678,-0.17378 0.0146,-0.34896 -0.16751,-0.335 2.20613,-2.00163 7.75109,-5.57358 8.20544,-8.03654 0.59392,-3.2174 -2.72189,-3.31371 -5.19113,-5.35722 4.79471,-2.01768 7.75109,1.30372 11.38655,2.84611 -1.50751,3.18949 -7.10482,8.15868 -9.71503,9.04503" />
  <path
     id="path45"
     style="clip-rule:evenodd;fill:#e4bc96;fill-rule:evenodd;stroke-width:0.697919"
     d="m 315.54115,173.13246 c -0.76631,-0.61906 -1.43981,-1.86624 -1.8425,-2.84612 3.0164,-2.25497 9.44633,-4.96778 8.37223,-8.70583 -0.71886,-2.50274 -6.79843,-5.64267 -8.03793,-7.53404 4.69001,0.32802 14.4525,1.68618 14.06585,6.52903 -0.30708,3.88741 -10.11284,10.23149 -12.55555,12.54858" />
  <path
     id="path47"
     style="clip-rule:evenodd;fill:#d59758;fill-rule:evenodd;stroke-width:0.697919"
     d="m 312.36562,167.93994 c -2.7484,-3.93417 -8.96197,-9.14274 -11.55474,-13.56125 5.87647,-3.27673 9.99629,1.12434 14.40085,4.18541 4.30268,2.99058 5.01943,2.66745 2.34431,6.02723 -1.19344,1.50052 -3.54543,2.72886 -5.18553,3.34302" />
  <path
     id="path49"
     style="clip-rule:evenodd;fill-rule:evenodd;stroke-width:0.697919"
     d="m 258.44443,187.36301 c -2.97942,0.21497 -5.31047,-1.78527 -7.20043,-2.0093 -1.30162,-0.15424 -6.71119,3.15947 -2.67932,-0.66931 2.73585,-2.59625 10.63629,1.29813 9.88253,2.68001" />
  <path
     id="path51"
     style="clip-rule:evenodd;fill-rule:evenodd;stroke-width:0.697919"
     d="m 268.48747,182.5055 c -2.21798,0.41108 -12.92615,-1.08805 -13.06154,-1.50611 -1.71968,-5.33698 11.27138,0.32384 14.06585,1.00431 -0.37688,0.10469 -0.72584,0.28615 -1.005,0.5025" />
  <path
     id="path53"
     style="clip-rule:evenodd;fill-rule:evenodd;stroke-width:0.697919"
     d="m 269.65998,178.48549 c -2.5146,0.0565 -10.25243,-0.89822 -10.21474,-3.34861 0.0307,-1.93184 9.59498,2.13423 11.38654,2.84611 -0.48156,0.13958 -0.76073,0.30709 -1.16552,0.5025" />
  <path
     id="path55"
     style="clip-rule:evenodd;fill-rule:evenodd;stroke-width:0.697919"
     d="m 273.67999,172.62995 c -3.59079,-0.44806 -12.39225,-0.0412 -8.03793,-3.34861 2.29475,-1.74341 5.75294,0.89194 9.37794,2.34361 v 0.335 c -0.45366,0.22333 -0.78865,0.36291 -1.34001,0.67" />
  <path
     id="path57"
     style="clip-rule:evenodd;fill:#5a3d1c;fill-rule:evenodd;stroke-width:0.697919"
     d="m 306.6706,151.36437 c -2.7484,-0.11725 -6.17309,1.08457 -8.37223,0.8375 -3.06945,-0.34546 -5.92184,-2.63184 -9.37793,-4.18541 -7.96395,-3.58033 -17.15484,-6.90661 -24.78309,-9.54335 -3.74992,-1.29603 -10.74935,-3.31231 -14.90336,-2.00861 1.21508,1.73224 5.76062,1.57102 8.37223,2.17681 4.22311,0.97849 8.25429,3.05968 12.22405,4.52042 1.206,0.44318 6.68746,1.48238 6.86612,2.84612 0.0391,0.29731 -5.23718,3.34233 -6.02861,3.51611 -2.41201,0.52832 -4.43458,-0.26311 -7.03293,0 -2.51391,0.25474 -5.16111,1.55078 -7.86974,1.67431 -7.0071,0.31964 -11.8346,-0.36083 -4.35361,4.68792 -5.86949,2.83704 -13.18926,5.33139 -20.42878,5.85972 -4.36897,0.31895 -7.29395,-0.71397 -10.71724,-1.00431 -3.34372,-0.28335 -4.40108,1.25277 -7.53543,1.67361 -3.1511,0.42295 -5.31046,-1.5403 -7.86972,-1.1718 -2.82029,0.40549 -5.00199,3.1162 -7.36794,3.85112 -4.81354,1.49493 -9.59777,3.10154 -15.07085,3.18111 -9.7611,0.14168 -14.90056,-4.32151 -24.44809,-1.84181 -0.32453,-2.07771 1.69524,-2.70792 3.51681,-3.51611 -0.1675,0.0558 -0.22333,0 -0.1675,-0.1675 -2.49855,-0.15773 -5.7348,1.0043 -8.20543,0 -4.21194,-1.7127 0.49413,-1.46005 0.1675,-4.18542 -0.28126,-2.3499 -6.45296,-1.27021 -1.0043,-4.01792 3.92579,-1.97999 9.59498,-0.86402 3.0143,-1.50681 -6.32732,-0.61835 -14.70234,0.46691 -10.38223,-7.36653 2.94452,-5.33838 10.33129,-7.8774 16.41086,-9.71084 9.02269,-2.72118 16.74446,-6.13261 26.4574,-6.02722 -1.67361,4.68442 9.29069,-1.68198 12.72654,-1.17181 1.07969,0.15982 1.44958,1.90113 2.84681,2.17611 1.05387,0.20798 2.90195,-0.46272 4.18612,-0.5025 3.32488,-0.1019 6.32803,0.42713 9.54474,0.67 10.2573,0.7733 21.59151,0.32035 32.15102,1.1718 7.82227,0.63023 13.49705,2.49647 20.76377,4.68793 8.36037,2.52157 15.75273,5.37327 23.10809,8.03583 3.11272,1.12366 15.13786,4.80169 13.56056,6.35804" />
  <path
     id="path59"
     style="clip-rule:evenodd;fill-rule:evenodd;stroke-width:0.697919"
     d="m 183.09014,155.55188 c -0.66651,-0.31545 -1.072,-0.19402 -1.1725,-1.0043 2.79726,-1.31488 5.24556,-2.5502 8.20543,-2.84611 -1.13063,1.8774 -4.55043,2.8475 -7.03502,3.85251" />
  <path
     id="path61"
     style="clip-rule:evenodd;fill-rule:evenodd;stroke-width:0.697919"
     d="m 174.21402,158.56689 c -0.89893,0.0523 -1.16483,0.14098 -2.00931,-0.1675 3.06944,-2.13354 6.12423,-4.95871 9.54473,-5.35722 -1.44469,1.95417 -5.01803,3.74782 -7.53612,5.52751" />
  <path
     id="path63"
     style="clip-rule:evenodd;fill:#d59758;fill-rule:evenodd;stroke-width:0.697919"
     d="m 178.73514,128.59827 c -8.25219,0.79842 -18.99247,5.51495 -27.29491,8.53833 0.58555,-2.20193 2.0128,-5.54008 3.68431,-6.86403 4.18054,-3.31302 2.35339,1.68618 3.68362,1.33931 2.6144,-0.68047 2.5809,-5.89672 4.01862,-7.36654 1.92695,-1.96952 3.35698,-0.41316 5.19111,-4.01791 4.88613,-9.60197 12.18776,-14.68491 17.08016,-24.108209 1.06573,-2.05257 2.49157,-6.256838 2.51182,-9.375835 0.0245,-3.808543 -2.44412,-7.906025 -1.17251,-10.715148 8.08329,10.623024 1.40561,29.466122 -3.01361,41.185572 -1.31208,3.4882 -2.35198,8.75051 -4.69002,11.39562" />
  <path
     id="path65"
     style="clip-rule:evenodd;fill-rule:evenodd;stroke-width:0.697919"
     d="m 168.01789,91.596011 c -3.89578,1.25626 -9.58521,3.21741 -13.89905,2.51111 -2.82098,-0.46202 -4.45761,-1.44957 -6.69792,-2.0086 -2.19147,-0.54717 -5.27906,-1.19833 -6.53042,-2.846121 -2.70305,-3.557991 6.35245,1.164831 8.20542,1.841801 4.21334,1.53822 8.46366,0.99593 13.39585,0.83681 -1.26951,-3.993486 2.04072,-0.86332 4.52112,-2.008608 -0.96033,-2.386885 3.23625,-3.019893 5.52612,-4.185419 0.77539,1.808309 -3.47005,4.670467 -4.52112,5.859027" />
  <path
     id="path67"
     style="clip-rule:evenodd;fill-rule:evenodd;stroke-width:0.697919"
     d="m 173.87902,84.396978 c -10.37875,0.683269 7.3407,-4.412937 0,0" />
  <path
     id="path69"
     style="clip-rule:evenodd;fill-rule:evenodd;stroke-width:0.697919"
     d="m 174.54832,81.048364 c -2.56834,-0.706293 -1.49146,-1.547982 0.67,-2.343604 v -0.335006 c -0.57368,-0.422934 -0.63929,-0.829824 -1.1725,-1.339301 2.25707,-1.471914 4.1903,-0.614867 1.67431,1.339301 1.31906,1.414685 0.75375,2.270327 -1.17181,2.67861" />
  <path
     id="path71"
     style="clip-rule:evenodd;fill-rule:evenodd;stroke-width:0.697919"
     d="m 175.55333,75.188642 c -1.04688,-0.727929 -1.5131,-1.777598 -1.67431,-3.348613 2.05746,-1.283472 3.9558,2.131443 1.67431,3.348613" />
  <path
     id="path73"
     style="clip-rule:evenodd;fill:#edb500;fill-rule:evenodd;stroke-width:0.697919"
     d="m 129.50395,94.944631 c -4.45342,0.37548 -8.61162,1.1055 -13.06154,1.33931 0.62114,-2.56207 5.18413,-4.93709 8.37292,-5.85973 2.37083,-0.686055 3.85809,-0.52344 5.19112,-0.33501 -0.35315,-0.0495 -0.34896,2.0121 2.34431,0.83751 -0.0328,0.16401 -0.0768,0.39851 0.1675,0.3343 -0.81237,1.81598 -1.71479,2.91869 -3.01431,3.68362" />
  <path
     id="path75"
     style="clip-rule:evenodd;fill-rule:evenodd;stroke-width:0.697919"
     d="m 172.37221,70.835723 c -1.24928,-2.614402 2.23962,-1.791556 0,0" />
  <path
     id="path77"
     style="clip-rule:evenodd;fill:#ffbf00;fill-rule:evenodd;stroke-width:0.697919"
     d="m 133.02076,87.578093 c -7.69176,-0.991046 -12.40271,3.085498 -17.91766,6.529028 -5.7341,3.58032 -8.93685,2.58788 -4.18612,-3.01361 3.50216,-4.129588 9.35699,-10.969192 13.22835,-15.402367 2.50274,-2.865654 2.5153,-3.372343 4.01931,-0.670002 1.70641,3.065261 2.6158,7.963249 4.01862,10.715146 0.42713,0.838198 0.79214,1.151563 0.8375,1.841805" />
  <path
     id="path79"
     style="clip-rule:evenodd;fill-rule:evenodd;stroke-width:0.697919"
     d="m 175.05082,67.822111 c -6.54578,-2.402934 2.46994,-4.545545 0,0" />
  <path
     id="path81"
     style="clip-rule:evenodd;fill-rule:evenodd;stroke-width:0.697919"
     d="m 170.5297,65.813501 c -1.70711,0.0077 -5.51077,-2.187975 -3.85111,-3.516114 0.71746,-0.574387 3.92789,2.252881 5.02362,2.846112 -0.4048,0.509481 -0.67908,0.390136 -1.17251,0.670002" />
  <path
     id="path83"
     style="clip-rule:evenodd;fill-rule:evenodd;stroke-width:0.697919"
     d="m 120.62922,85.066981 c -1.55776,-1.395839 1.20112,-3.447022 3.18181,-4.185419 0.15005,1.832735 -1.37699,3.037346 -3.18181,4.185419" />
  <path
     id="path85"
     style="clip-rule:evenodd;fill-rule:evenodd;stroke-width:0.697919"
     d="m 163.83178,63.804193 c -5.69851,-0.71397 -5.4326,-4.349429 0.8375,-0.836804 -0.24288,0.32523 -0.59184,0.532511 -0.8375,0.836804" />
  <path
     id="path87"
     style="clip-rule:evenodd;fill-rule:evenodd;stroke-width:0.697919"
     d="m 142.23049,72.677531 c -6.92125,0.175177 -7.79086,-6.295924 -2.51181,-9.040838 0.82076,-0.426429 8.63256,-2.177506 9.54474,-1.674307 1.58219,0.873096 -1.90462,4.029084 -3.01431,5.525422 -1.56194,2.10562 -1.91508,4.118418 -4.01862,5.189723" />
  <path
     id="path89"
     style="clip-rule:evenodd;fill:#ffffff;fill-rule:evenodd;stroke-width:0.697919"
     d="m 140.8905,71.003225 c -3.84275,-0.388043 -2.2166,-6.013966 1.3393,-5.859726 4.37316,0.189834 0.80261,5.198797 -1.3393,5.859726" />
  <path
     id="path91"
     style="clip-rule:evenodd;fill-rule:evenodd;stroke-width:0.697919"
     d="m 156.79885,61.962386 c -4.43527,1.009888 -4.98174,-1.940912 -7.36793,-3.516115 1.80412,-0.423636 4.37875,-0.03559 6.53043,0.335002 -0.65465,1.380482 0.32104,2.113297 1.84251,2.678611 -0.26801,0.246365 -0.62534,0.213564 -1.00501,0.502502" />
  <path
     id="path93"
     style="clip-rule:evenodd;fill-rule:evenodd;stroke-width:0.697919"
     d="m 140.8905,69.496418 c -3.43796,-0.415262 -3.38003,-5.322328 0,-5.357224 3.73735,-0.03839 3.50145,4.891712 0,5.357224" />
  <path
     id="path95"
     style="fill:none;stroke-width:0;stroke-miterlimit:10"
     d="m 140.8905,69.496418 c -3.43796,-0.415262 -3.38003,-5.322328 0,-5.357224 3.72479,-0.03839 3.48261,4.889618 0,5.357224" />
  <path
     id="path97"
     style="clip-rule:evenodd;fill:#ffffff;fill-rule:evenodd;stroke-width:0.697919"
     d="m 142.23049,67.31961 c -2.09305,-2.382695 1.90951,-2.728862 0,0" />
  <path
     id="path99"
     style="fill:none;stroke-width:0;stroke-miterlimit:10"
     d="m 142.23049,67.31961 c -2.09305,-2.382695 1.90951,-2.728862 0,0" />
  <metadata
     id="metadata4453">
    <rdf:RDF>
      <cc:Work>
        <dc:format>image/svg+xml</dc:format>
        <dc:type
           rdf:resource="http://purl.org/dc/dcmitype/StillImage" />
        <cc:license
           rdf:resource="http://creativecommons.org/publicdomain/zero/1.0/" />
        <dc:publisher>
          <cc:Agent
             rdf:about="http://openclipart.org/">
            <dc:title>Openclipart</dc:title>
          </cc:Agent>
        </dc:publisher>
        <dc:title>Architetto -- Anatra</dc:title>
        <dc:date>2006-12-26T00:00:00</dc:date>
        <dc:description />
        <dc:source>https://openclipart.org/detail/24747/-by--24747</dc:source>
        <dc:creator>
          <cc:Agent>
            <dc:title>Anonymous</dc:title>
          </cc:Agent>
        </dc:creator>
      </cc:Work>
      <cc:License
         rdf:about="http://creativecommons.org/publicdomain/zero/1.0/">
        <cc:permits
           rdf:resource="http://creativecommons.org/ns#Reproduction" />
        <cc:permits
           rdf:resource="http://creativecommons.org/ns#Distribution" />
        <cc:permits
           rdf:resource="http://creativecommons.org/ns#DerivativeWorks" />
      </cc:License>
    </rdf:RDF>
  </metadata>
</svg>
