<?xml version="1.0" encoding="UTF-8" standalone="no"?>
<svg
   xmlns:dc="http://purl.org/dc/elements/1.1/"
   xmlns:cc="http://creativecommons.org/ns#"
   xmlns:rdf="http://www.w3.org/1999/02/22-rdf-syntax-ns#"
   xmlns:svg="http://www.w3.org/2000/svg"
   xmlns="http://www.w3.org/2000/svg"
   xmlns:sodipodi="http://sodipodi.sourceforge.net/DTD/sodipodi-0.dtd"
   xmlns:inkscape="http://www.inkscape.org/namespaces/inkscape"
   id="svg2"
   sodipodi:docname="quilt.svg"
   viewBox="0 0 472.44094 332.59843"
   version="1.1"
   inkscape:version="1.0.2-2 (e86c870879, 2021-01-15)"
   width="125mm"
   height="88mm">
  <defs
     id="defs55" />
  <sodipodi:namedview
     id="base"
     bordercolor="#666666"
     inkscape:pageshadow="2"
     inkscape:window-y="-8"
     pagecolor="#ffffff"
     inkscape:window-height="1017"
     inkscape:window-maximized="1"
     inkscape:zoom="0.46389356"
     inkscape:window-x="-8"
     showgrid="false"
     borderopacity="1.0"
     inkscape:current-layer="layer1"
     inkscape:cx="46.380838"
     inkscape:cy="61.84624"
     inkscape:window-width="1920"
     inkscape:pageopacity="0.0"
     inkscape:document-units="px"
     inkscape:document-rotation="0"
     units="mm" />
  <g
     id="layer1"
     inkscape:label="Layer 1"
     inkscape:groupmode="layer"
     transform="translate(-107.79,-201.65)">
    <path
       id="path3655"
       sodipodi:nodetypes="cssssscccsc"
       style="fill:#eeffaa;stroke-width:0.628694"
       d="m 410.10599,215.69987 c 0.83787,-0.15353 14.90225,-0.10695 24.1012,0.21124 9.47359,0.32769 9.77749,0.32927 10.75265,0.40145 0.43889,0.0325 14.4261,11.36574 19.53073,16.72165 6.02969,6.32602 19.62997,24.71406 18.96629,25.67554 -0.10051,0.1456 -4.92757,-0.10966 -10.23587,-0.14143 -5.30855,-0.0318 -15.2897,0.17258 -21.68165,0.36257 l -11.9633,0.32373 -3.44718,-6.69378 c -6.303,-11.84814 -13.45683,-22.50879 -20.96728,-31.0984 -4.7744,-5.46071 -5.2991,-5.71783 -5.05569,-5.76242 z" />
    <path
       id="path3681"
       sodipodi:nodetypes="cssssscccsc"
       style="fill:#afc6e9;stroke-width:0.628694"
       d="m 439.91237,259.52395 c 0.61132,-0.15753 42.82019,-1.15677 43.5141,-0.4185 0.7301,0.77658 4.93063,8.30684 7.41255,13.80904 3.00233,6.65576 5.26434,13.60953 8.29323,24.07429 2.2626,7.81717 2.64129,8.94621 2.31761,8.92946 -0.51973,-0.0271 -18.44118,-0.89708 -27.14873,-0.6648 -5.8843,0.15699 -11.46174,0.67501 -12.78595,0.7071 l -2.89667,0.14798 -4.93871,-13.03515 c -5.23168,-13.78361 -10.19991,-25.9492 -12.53752,-30.49225 -1.38872,-2.69885 -1.45437,-3.02295 -1.23004,-3.05684 z" />
    <path
       id="path3667"
       sodipodi:nodetypes="cscccssscccsc"
       style="fill:#eeffaa;stroke-width:0.628694"
       d="m 458.45006,305.96254 c 0.52604,0.0472 3.90298,-0.0446 5.65318,-0.17408 5.73805,-0.4246 22.16391,-0.53174 29.63598,-0.21626 l 7.91028,0.28618 2.61883,7.87141 c 3.47535,9.64602 8.26715,20.37642 14.34334,31.36875 2.7825,5.03365 5.01543,9.15992 4.96212,9.16969 -0.0533,0.01 -4.40318,-0.16854 -9.6664,-0.39621 -7.78599,-0.33691 -22.1441,-0.20433 -33.2923,-0.12386 l -2.39256,0.18527 -4.32236,-9.41794 c -5.73913,-13.06617 -13.35372,-33.05594 -13.33891,-32.50067 0.0101,0.37587 -2.67352,-6.10242 -2.11178,-6.05195 z" />
    <path
       id="path3695"
       sodipodi:nodetypes="csscccsssssc"
       style="fill:#aaeeff;stroke-width:0.628694"
       d="m 480.64701,353.81429 c 16.73827,-0.20976 42.54903,0.14695 43.54273,0.86097 0.65213,0.46838 7.5123,12.03307 15.10423,25.18925 5.3141,9.20874 10.50375,19.61632 12.18124,24.71434 l 0.79838,2.6793 -3.77517,-0.43407 c -13.43809,-1.61358 -38.77523,-3.46668 -45.4951,-3.28037 -1.20959,0.0336 -3.25289,-0.005 -3.62423,-0.14957 -0.3713,-0.14502 -1.99111,-4.92638 -4.18001,-10.41554 -2.18895,-5.48942 -6.71638,-16.17367 -10.19723,-23.92356 -3.48085,-7.74989 -6.85324,-15.11059 -6.87545,-15.2318 -0.0223,-0.12132 1.4144,0.005 2.52055,-0.009 z" />
    <path
       id="path3663"
       sodipodi:nodetypes="csssssccccccsc"
       style="fill:#eeffaa;stroke-width:0.628694"
       d="m 499.359,403.50623 c 0.70658,0.0311 5.29885,0.16963 8.7532,0.26455 11.08971,0.30492 27.64279,1.41464 39.40834,2.84063 4.05561,0.49152 4.55079,0.59279 4.72857,0.72377 0.32754,0.24139 1.69583,6.50592 1.9934,9.11222 1.31239,11.49452 -1.6937,16.55526 -8.0189,14.80736 -4.14441,-1.14529 -10.99697,-6.9984 -14.32577,-12.46814 l -1.31554,-2.4948 -3.07128,0.69659 c -1.85241,0.50587 -7.90927,1.56813 -13.18674,2.72316 l -10.20444,2.46482 -1.414,-7.29386 c -1.10851,-4.04379 -2.28138,-8.52382 -2.6147,-9.43811 -0.56267,-1.54345 -1.34556,-1.59052 -0.73252,-1.93826 z" />
    <path
       id="path3665"
       sodipodi:nodetypes="csccccccssc"
       style="fill:#eeffaa;stroke-width:0.628694"
       d="m 487.51253,426.82677 c 0.0922,-0.27007 5.15712,-1.54636 10.91136,-3.02636 5.754,-1.47994 15.13869,-3.79778 20.97263,-5.06925 l 10.93417,-2.37165 2.12898,3.42467 c 3.01364,4.27749 7.57483,8.68902 10.85681,10.45062 l 4.11997,1.65279 -6.79311,0.72492 c -14.15159,1.73405 -39.67602,4.77474 -41.756,4.63093 -2.68124,-0.18537 -7.01613,-2.70717 -9.04833,-5.5134 -1.4929,-2.06156 -2.74296,-4.82658 -2.32605,-4.90298 z" />
    <path
       id="path3683"
       sodipodi:nodetypes="cssccccccsssc"
       style="fill:#afc6e9;stroke-width:0.628694"
       d="m 376.07874,315.61033 c 17.86085,-2.80023 31.7766,-4.94233 32.38397,-4.5054 0.25646,0.1845 4.69168,10.24956 9.83628,21.13328 5.14459,10.88372 9.50594,20.60196 10.1644,21.92325 l 1.19717,2.40208 -2.51984,0.13529 c -3.45753,0.18564 -26.58281,3.38994 -38.18827,5.077 l -9.69056,1.41489 -0.89309,-1.92909 c -0.29064,-0.72639 -0.89846,-3.2134 -1.82306,-5.85271 -2.82782,-8.07216 -8.63826,-23.02294 -11.66695,-30.01965 -1.57967,-3.64925 -3.2309,-7.2115 -3.26047,-7.3729 -0.0295,-0.16095 6.62878,-1.17878 14.46041,-2.40661 z" />
    <path
       id="path3723"
       sodipodi:nodetypes="csssscccsc"
       style="fill:#ff0000;stroke-width:0.628694"
       d="m 349.97758,268.9853 c 11.06778,-1.72282 34.68894,-4.79059 35.01844,-4.62132 0.30521,0.15679 13.47797,26.11235 17.64585,34.81141 2.66948,5.57177 5.29406,11.02826 5.48655,11.3637 0.26866,0.46838 -0.99526,0.61169 -3.72308,0.86001 -1.95423,0.17791 -12.39883,1.83617 -23.14722,3.4672 l -19.80209,2.92871 -4.53756,-9.4667 c -5.77249,-11.9786 -19.65119,-37.05238 -19.91273,-36.97633 -0.38784,0.11281 0.30131,-0.39478 12.97202,-2.36711 z" />
    <path
       id="path3689"
       sodipodi:nodetypes="cssssssssccc"
       style="fill:#aaeeff;stroke-width:0.628694"
       d="m 313.66025,225.69593 c 3.24561,-0.43905 11.61295,-1.70907 18.79351,-2.85883 12.71816,-2.03643 25.94646,-4.1525 26.49158,-3.77621 1.2322,0.85056 25.91569,44.39894 25.47537,44.91552 -0.0961,0.11295 -3.50953,0.54993 -7.26771,1.0161 -3.75805,0.46611 -11.81899,1.35899 -17.85838,2.28352 -19.63022,3.00516 -21.87265,3.56182 -22.83182,3.69556 -0.36949,0.0515 -14.02667,-22.42355 -20.62028,-32.21148 -4.21816,-6.26104 -8.14408,-11.67122 -8.17014,-11.81345 -0.0262,-0.14262 3.06117,-0.44837 6.30697,-0.88746 l -0.31977,-0.36337 z" />
    <path
       id="path2873"
       sodipodi:nodetypes="cssssssscccc"
       style="fill:#0055d4;stroke-width:0.628694"
       d="m 364.76504,218.67099 c 14.57332,-1.4626 42.14302,-3.18845 44.98905,-2.86497 2.12128,0.24121 13.65667,15.34297 20.45667,26.33753 3.90713,6.3174 9.49884,16.91914 9.18684,17.37067 -0.11214,0.16245 -3.42691,0.20243 -6.49453,0.34173 -7.2168,0.32773 -23.9396,1.68578 -36.96559,3.01187 -5.65632,0.57585 -10.72217,1.29274 -10.93076,1.12061 -0.20897,-0.17208 -3.0645,-6.05954 -6.49874,-12.23029 -5.39218,-9.6885 -11.76836,-20.51464 -17.50436,-29.72086 l -1.89974,-2.89915 3.41211,-0.30861 2.24948,-0.15901 z" />
    <path
       id="path3653"
       sodipodi:nodetypes="cssssssscc"
       style="fill:#ffaaaa;stroke-width:0.628694"
       d="m 385.179,264.15219 c 1.45785,-0.26521 23.74777,-2.59658 31.36454,-3.20417 15.32487,-1.22244 22.39538,-1.85668 22.92861,-1.26627 1.61438,1.78658 19.45108,45.59819 18.858,46.33453 -0.0582,0.0722 -5.9536,0.22248 -12.51055,0.74159 -10.93653,0.86589 -35.73842,6.5661 -37.46627,4.01524 -1.01707,-1.50154 -0.0289,-0.5613 -4.00576,-8.89176 -3.7432,-7.84116 -13.01097,-25.99849 -17.31015,-34.20372 -0.8834,-1.68595 -1.53236,-3.33207 -1.48708,-3.34031 l -0.37148,-0.18511 z" />
    <path
       id="path3709"
       sodipodi:nodetypes="cssssssssscc"
       style="fill:#87deaa;stroke-width:0.628694"
       d="m 413.14536,310.35235 c 5.91477,-1.0836 44.54958,-4.51338 45.22388,-4.05651 0.12899,0.0874 1.62666,4.05954 3.25507,8.42787 3.56833,9.57272 7.66928,19.56685 12.45373,30.44305 1.9559,4.44599 3.92405,8.45869 3.55888,8.4994 -0.30617,0.0338 -3.89657,0.22895 -7.6731,0.33507 -8.57112,0.24084 -26.75871,1.7323 -33.1743,2.42115 -2.65663,0.28523 -5.96175,0.39355 -6.31016,0.25752 -0.34839,-0.13607 -5.12494,-10.0858 -10.65981,-21.79347 -5.53451,-11.70709 -11.02057,-23.36811 -11.2894,-23.80971 -0.42124,-0.6907 1.58963,-0.59212 3.21156,-0.55166 l 1.40308,-0.17271 z" />
    <path
       id="path3699"
       sodipodi:nodetypes="cssscccssscc"
       style="fill:#e580ff;stroke-width:0.628694"
       d="m 434.47222,356.42048 c 12.12375,-1.12938 42.88651,-2.91555 43.49262,-2.44363 0.94384,0.73421 20.5441,46.88203 21.02001,49.4793 0.14933,0.81493 -0.93519,-0.34348 -5.81746,-0.38204 -7.50825,-0.0594 -29.246,1.12718 -37.09191,1.79228 l -7.19368,0.49222 -0.46663,-1.74249 c -0.28511,-0.86036 -0.84924,-4.21715 -1.75257,-7.36797 -2.18354,-7.61625 -5.87664,-17.11434 -10.88367,-27.99132 -2.25923,-4.9078 -6.24324,-11.10104 -5.5687,-11.25468 1.35823,-0.30973 0.50793,0.0101 4.38827,-0.35135 l -0.12654,-0.23 z" />
    <path
       id="path2869"
       sodipodi:nodetypes="ccccsscccssscc"
       style="fill:#0055d4;stroke-width:0.628694"
       d="m 452.52679,429.8371 c -0.0737,-2.49955 -0.76578,-8.97539 -1.53802,-14.39012 l -2.11723,-10.05273 2.50738,-0.36376 c 0.7668,0.005 2.76814,-0.0906 4.94652,-0.30386 10.13994,-0.99252 41.8721,-1.75438 42.75266,-1.0613 0.69554,0.54738 3.26585,9.33605 4.10664,13.9284 l 0.87128,4.75843 -2.92152,0.83936 c -1.47214,0.43697 -6.5791,1.34174 -10.95733,2.45461 -4.37866,1.11296 -14.31826,3.78243 -22.08771,5.93217 -7.76946,2.14967 -14.93441,4.22539 -15.2603,4.2851 -0.68303,0.12516 -0.12636,-0.0405 -0.30276,-6.02639 l -4e-5,10e-6 z" />
    <path
       id="path2871"
       sodipodi:nodetypes="csscccssccc"
       style="fill:#0055d4;stroke-width:0.628694"
       d="m 445.30416,438.31276 c 7.37484,-2.24182 35.48404,-10.22867 37.49712,-10.59997 1.2634,-0.23277 3.40603,-0.96091 4.18702,-0.50366 0.55169,0.323 4.78582,7.64243 7.06663,8.95279 l 3.4201,1.30672 -8.16934,1.00685 c -3.89297,0.53665 -15.17783,2.31793 -25.07698,3.95836 -10.6094,1.75812 -17.52147,3.42105 -18.43556,3.25307 -1.60786,-0.29539 -3.76755,-0.81909 -4.90987,-3.12168 l -0.90713,-2.65242 5.32812,-1.59995 z" />
    <path
       id="path3715"
       sodipodi:nodetypes="csscccsc"
       style="fill:#aaeeff;stroke-width:0.628694"
       d="m 416.043,447.17069 c 11.40748,-3.4931 16.91316,-5.08052 17.67678,-5.35006 1.09075,-0.38495 5.76722,-1.92474 5.94825,-1.85801 0.5008,0.18468 1.08173,3.10356 1.97902,4.01517 l 3.05751,2.07138 -25.25944,4.37526 c -13.14961,2.40949 -27.11291,5.03155 -27.27689,4.41924 -0.10669,-0.39741 12.46728,-4.1799 23.87476,-7.673 z" />
    <path
       id="path3691"
       sodipodi:nodetypes="ccccssssssc"
       style="fill:#aaeeff;stroke-width:0.628694"
       d="m 400.64199,445.82539 c -0.0461,-1.76549 -1.08526,-10.029 -2.67179,-18.0902 l -3.54611,-15.04226 8.59908,-1.48348 c 13.01579,-2.37244 45.56863,-7.61659 45.82519,-5.67576 0.0672,0.50815 0.92496,1.44702 1.98807,9.16561 0.94942,6.89323 2.04214,20.94694 1.68173,21.47509 -0.50851,0.7448 -6.57738,2.04533 -11.38722,3.41537 -4.27552,1.21779 -11.23923,3.34045 -24.94647,7.60406 -6.85302,2.13162 -14.87136,4.74044 -15.51428,4.85945 -1.31685,0.24386 0.10974,-0.97718 -0.0272,-6.22784 z" />
    <path
       id="path3711"
       sodipodi:nodetypes="csssccccccssc"
       style="fill:#87deaa;stroke-width:0.628694"
       d="m 332.43709,467.66116 c 0.0894,-0.13957 -1.26145,-8.25691 -2.9035,-19.19056 -1.64204,-10.93364 -3.94047,-19.67614 -3.13351,-20.17299 2.20251,-1.35612 6.00652,-1.81276 12.92983,-3.56011 18.35597,-4.63279 37.6737,-9.10958 46.62888,-10.56124 l 8.15756,-1.32925 2.0252,7.29244 c 1.95446,7.86723 4.45764,23.7666 4.4716,28.42354 l -0.0419,3.44815 -5.92158,1.83957 c -11.30518,3.40258 -57.20755,20.46111 -60.96769,22.75311 -0.63212,0.3855 -0.21052,-0.76331 -0.81072,-4.03878 -0.38997,-2.12827 -0.33925,-4.20698 -0.43625,-4.90315 z" />
    <path
       id="path3717"
       sodipodi:nodetypes="cscccssccccccc"
       style="fill:#ff0000;stroke-width:0.628694"
       d="m 319.75922,375.24139 c 2.38492,-0.45439 12.16827,-2.96886 21.85019,-4.98896 9.68194,-2.02007 21.55671,-4.35122 26.90567,-5.17195 l 10.64467,-1.99824 2.09703,6.9335 c 4.93271,14.27494 13.35704,42.12375 12.92937,42.65463 -0.0981,0.12172 -9.89529,1.44174 -20.98966,3.8216 -18.03453,3.86856 -36.74055,8.72582 -43.4445,10.78143 l -3.6423,0.9657 -1.69511,-10.12432 c -1.98506,-10.78068 -6.93663,-33.7275 -8.30867,-38.32157 l -0.68324,-3.72524 4.33617,-0.82611 v 1e-5 z" />
    <path
       id="path3679"
       sodipodi:nodetypes="cccccccssccccc"
       style="fill:#ffaaaa;stroke-width:0.628694"
       d="m 304.86744,328.67802 c 1.67714,-0.49203 14.9266,-3.15535 29.56037,-5.83679 l 27.04586,-4.787 3.75152,8.65392 c 3.91566,9.27451 11.08786,28.23193 12.55045,33.0638 l 1.2481,3.39853 -22.97311,4.09646 c -12.25986,2.27714 -26.35635,5.38267 -31.39999,6.50227 -7.9573,1.76642 -9.29881,2.71216 -9.42411,2.03537 -0.73953,-3.99296 -9.93605,-35.12861 -12.7502,-43.13488 l -1.06015,-3.44609 3.52558,-0.13792 -0.0748,-0.40824 z" />
    <path
       id="path3677"
       sodipodi:nodetypes="ccccscccscc"
       style="fill:#0055d4;stroke-width:0.628694"
       d="m 281.22295,281.96078 c 0.36004,-0.21959 13.52744,-2.98458 28.19939,-5.74365 l 27.09966,-5.00969 2.09261,3.26386 c 5.02341,7.81623 22.21088,40.91302 22.67739,43.49732 0.0516,0.28533 -12.53962,2.00612 -30.14728,5.31607 l -29.66799,6.0831 -0.60854,-2.41676 c -5.53302,-15.38766 -13.91618,-34.87675 -17.73514,-41.18666 -0.19997,-0.33043 -2.07735,-3.45061 -1.71728,-3.67018 l -0.19322,-0.13337 z" />
    <path
       id="path3697"
       sodipodi:nodetypes="cssssssscc"
       style="fill:#e580ff;stroke-width:0.628694"
       d="m 259.21806,236.79666 c 9.70356,-2.35547 47.74932,-10.20198 48.21311,-9.89983 1.02534,0.66764 29.29933,42.91607 28.84065,44.07198 -0.17319,0.43655 -10.37059,1.89645 -26.32078,5.0676 -14.19204,2.82133 -27.88065,5.63438 -28.54239,5.80418 -1.10418,0.28339 -0.31097,-0.93666 -4.12519,-7.64077 -6.91444,-12.15349 -15.56581,-24.75378 -21.97683,-32.00701 -1.3418,-1.5181 -3.32112,-3.42245 -3.35408,-3.59812 -0.0327,-0.17571 3.74039,-0.51587 7.34049,-1.38979 l -0.0748,-0.40827 z" />
    <path
       id="path3657"
       sodipodi:nodetypes="cscccssssssssccc"
       style="fill:#eeffaa;stroke-width:0.628694"
       d="m 196.83161,252.57443 c 5.432,-1.60403 21.56761,-5.68704 33.46911,-8.67458 6.50102,-1.63189 13.46132,-3.33152 16.04815,-3.98653 l 5.60148,-1.35549 3.04276,3.68827 c 3.93137,4.57552 13.24833,17.76415 16.73479,23.38972 4.33072,6.98697 9.50743,15.88467 9.28804,16.44643 -0.10778,0.27596 -3.11421,0.61448 -5.49177,1.05014 -5.14581,0.9429 -27.32723,6.14314 -41.34067,9.83104 -12.36833,3.25492 -12.43916,4.53567 -12.60527,3.62911 -0.22152,-1.20891 -7.84408,-16.17349 -11.23648,-21.84313 -3.64949,-6.09872 -9.49689,-13.47952 -13.03561,-17.14736 -1.33306,-1.38182 -3.68069,-3.82665 -3.94465,-4.1189 -0.33163,-0.36711 1.77857,0.13485 3.80415,-0.46328 l -1e-5,-1e-5 -0.33473,-0.44506 z" />
    <path
       id="path3685"
       sodipodi:nodetypes="ccccssssssscc"
       style="fill:#afc6e9;stroke-width:0.628694"
       d="m 228.75171,294.7137 c 21.64327,-5.61941 42.05322,-10.65483 48.0087,-11.74789 l 4.32504,-0.96257 3.02639,5.98344 c 4.98949,9.97895 17.07573,41.00643 17.03828,41.08807 -0.15787,0.34224 0.37774,0.45341 -7.69351,1.94336 -6.18619,1.14196 -25.67178,5.81888 -42.16947,9.82861 -6.22678,1.51343 -10.69767,3.31356 -11.65253,2.76269 -4.93786,-2.84785 -1.15264,-3.43034 -2.53794,-7.46375 -3.62955,-10.56755 -9.22892,-25.1997 -12.41024,-32.43115 -1.51266,-3.43807 -3.13859,-6.99128 -3.06113,-7.02657 4.90431,-2.25111 1.46591,-0.32722 3.93537,-0.96835 l 3.19128,-1.00665 z" />
    <path
       id="path3669"
       sodipodi:nodetypes="csccccccssssc"
       style="fill:#eeffaa;stroke-width:0.628694"
       d="m 239.71523,343.83766 c 2.28286,-0.75716 4.38349,-1.29793 8.90828,-2.41919 12.64252,-3.13285 42.11857,-9.86921 47.49555,-10.85448 l 5.087,-1.1853 1.56455,4.00132 c 2.67147,7.28141 9.7146,30.99099 11.65649,39.32136 l 0.55752,3.19195 -6.73583,1.62705 c -13.65796,3.33969 -30.10291,7.25351 -42.01333,10.53076 -6.83691,1.88122 -12.83452,3.64075 -12.98382,3.53753 -0.14948,-0.10319 -1.04562,-3.48978 -2.12774,-7.70701 -3.47609,-13.54667 -9.61068,-34.24547 -10.64228,-37.79042 -0.18701,-0.64267 -0.98596,-2.21145 -0.76622,-2.25313 z" />
    <path
       id="path3693"
       sodipodi:nodetypes="csscccscccsc"
       style="fill:#aaeeff;stroke-width:0.628694"
       d="m 253.40697,392.01429 c 0.25151,-0.0473 5.77741,-1.27711 11.82557,-2.95899 20.38288,-5.66804 49.21536,-13.43306 49.89843,-13.0295 0.68002,0.40188 5.66825,23.5454 8.32817,38.06168 l 2.6764,14.14572 -2.14762,0.57739 c -0.90348,0.31308 -6.76146,1.6755 -12.94528,3.42692 -10.11577,2.86504 -40.53624,12.6062 -44.43722,14.09112 l -2.20986,0.71222 -4.61182,-25.12086 c -2.69144,-13.64891 -5.5581,-25.75856 -5.98961,-27.08372 -0.4315,-1.32531 -0.6386,-2.77501 -0.38709,-2.82237 z" />
    <path
       id="path3661"
       sodipodi:nodetypes="ccccscccsssccc"
       style="fill:#eeffaa;stroke-width:0.628694"
       d="m 270.38219,494.73607 c -0.52622,-7.97426 -2.92054,-26.2866 -4.60801,-37.98147 l -1.45115,-9.43209 1.85906,-0.87691 c 6.55068,-2.37593 37.93725,-12.02803 48.67286,-14.99854 3.37666,-0.9343 6.96213,-1.89893 8.1489,-2.27998 l 3.21909,-0.88729 1.59437,9.80404 c 1.98624,11.05082 6.09497,38.09954 5.72145,38.64096 -0.39868,0.57756 -40.97057,18.21325 -52.85049,23.11164 -3.98584,1.64339 -9.04522,4.12048 -9.58838,3.72006 -1.07525,-0.79349 -0.11507,0.3161 -0.71796,-8.82053 h -2e-5 z" />
    <path
       id="path2875"
       sodipodi:nodetypes="ccccscccscc"
       style="fill:#0055d4;stroke-width:0.628694"
       d="m 212.19807,492.14773 c -1.51436,-9.62696 -2.9297,-19.19535 -3.14524,-21.26316 l -0.9566,-4.07821 21.01402,-7.41061 c 25.98678,-9.26933 34.76054,-12.74005 35.24336,-12.12127 0.53047,0.6795 4.22864,30.35421 5.63205,47.05143 l 0.72995,9.98289 -2.75265,0.71103 c -10.22718,4.07438 -48.45639,17.16699 -51.13345,17.65752 -0.23433,0.043 -1.20662,-8.75847 -4.63121,-30.52908 z" />
    <path
       id="path3703"
       sodipodi:nodetypes="cccscccssssccc"
       style="fill:#e580ff;stroke-width:0.628694"
       d="m 202.28417,430.57873 -4.16479,-21.68674 16.81263,-5.34307 c 9.29178,-3.28426 37.60728,-11.63821 38.08447,-11.29785 0.43221,0.30833 7.33464,32.40308 9.3881,43.61735 l 1.88019,11.18914 -1.69017,0.68589 c -0.75816,0.2994 -3.93411,1.31846 -7.13938,2.38269 -3.20502,1.06418 -14.76621,5.04222 -25.67259,8.93987 -10.90641,3.89759 -20.97662,7.8031 -21.38971,7.8788 -0.62433,0.11439 -0.51439,-1.91278 -1.50044,-7.87565 -0.65249,-3.94569 -2.55475,-16.84419 -4.60817,-28.49055 h -1e-5 z" />
    <path
       id="path3707"
       sodipodi:nodetypes="csssssssscc"
       style="fill:#87deaa;stroke-width:0.628694"
       d="m 189.75636,356.94196 c 0.37029,-0.0691 2.42329,-0.65834 7.90044,-2.23018 13.37605,-3.83865 41.27967,-11.186 41.63963,-10.93768 0.75462,0.52089 7.56294,23.3069 11.54253,38.8878 1.76025,6.89167 2.60429,9.14856 2.14846,9.23209 -1.57648,0.28887 -18.05776,5.07075 -35.2199,10.44941 -10.4358,3.27063 -19.55547,6.61514 -19.71355,6.50593 -0.15823,-0.10925 -1.62933,-7.66029 -3.38581,-15.72806 -3.26447,-14.99416 -7.49244,-32.06226 -8.24645,-35.08474 -0.10923,-0.43774 -0.0211,0.28151 0.61809,-0.25939 l 2.71633,-0.83531 z" />
    <path
       id="path3649"
       sodipodi:nodetypes="cssssssscccc"
       style="fill:#ffaaaa;stroke-width:0.628694"
       d="m 175.33522,309.94721 c 8.49226,-2.83391 45.77128,-13.64049 46.1587,-13.10281 0.76373,1.05963 9.75348,22.45235 14.14953,35.11076 1.59288,4.58639 4.57596,11.37396 3.80751,11.55055 -3.53821,0.81302 2.32016,-0.55388 -23.2713,6.23981 -9.1628,2.43246 -19.67212,5.27752 -23.25318,6.30385 -4.42075,1.26697 -6.61757,2.21318 -6.68644,1.8478 -0.0555,-0.29607 -1.58983,-6.30993 -3.42644,-12.3305 -3.21268,-10.5308 -8.34134,-24.99226 -10.94814,-30.87041 l -1.50079,-3.2735 1.94242,-0.49947 3.028,-0.97681 z" />
    <path
       id="path2863"
       sodipodi:nodetypes="ccccssssssssc"
       style="fill:#0055d4;stroke-width:0.628694"
       d="m 162.3831,262.70245 c 12.00651,-3.454 23.7696,-7.11318 26.31362,-7.7507 l 4.66233,-1.41908 4.03578,4.07479 c 4.39345,4.58724 8.37283,9.98219 12.5327,16.85153 3.85034,6.35912 11.67653,21.6564 11.34367,22.13859 -0.12621,0.18284 -4.56464,1.06242 -9.17326,2.34395 -10.27932,2.85845 -20.31835,5.79349 -32.25736,9.43097 -4.99602,1.52214 -9.26226,3.21513 -9.3903,3.1268 -0.12801,-0.0884 -1.74801,-3.88398 -3.68987,-7.79916 -7.17298,-14.46269 -14.54811,-24.5542 -23.19167,-31.73391 -1.60176,-1.33049 -3.81202,-2.72319 -3.84048,-2.87853 -0.0284,-0.15536 10.64816,-2.93148 22.65406,-6.38531 z" />
    <path
       id="path3727"
       sodipodi:nodetypes="cssssscccccc"
       style="fill:#eeffaa;stroke-width:0.628694"
       d="m 389.56918,361.74657 c 11.65112,-1.71695 33.19208,-4.36119 37.30707,-4.66082 3.33437,-0.24282 3.0511,-0.15555 4.45605,2.52233 3.33666,6.35993 9.91746,21.29034 11.97737,26.94338 2.69962,7.40856 5.75109,18.19324 5.39192,18.7135 -0.14162,0.20516 -3.43118,0.52407 -6.57524,0.78032 -5.69911,0.46445 -22.00574,2.59133 -38.57879,5.03172 l -8.9368,1.57638 -0.96829,-3.26407 c -4.96623,-17.00249 -7.33648,-25.04089 -10.5512,-34.58765 l -3.52535,-11.16699 10.0028,-1.88747 z" />
    <path
       id="path2825"
       sodipodi:nodetypes="ccccccsccc"
       style="fill:none;stroke:#000000;stroke-width:0.628694px"
       d="m 387.53771,456.10743 c -77.50959,26.86692 -84.81619,39.38405 -170.79986,66.88526 m 333.67461,-91.3865 c -53.64112,7.71832 -14.35373,-2.17367 -163.18481,24.55319 -9.66656,3.60394 79.03071,-26.5883 143.40137,-39.80421 1.01202,3.76035 17.6242,24.03336 23.37492,10.81767 5.78687,-34.23346 -40.08507,-71.89173 -54.42654,-128.76972 -14.67857,-58.21473 -54.69443,-82.15777 -54.69443,-82.15777 -98.79564,-5.79333 -212.82384,25.48525 -305.55153,52.84221 45.19096,29.63055 62.56607,156.05328 77.44613,253.93703" />
    <path
       id="path2828"
       sodipodi:nodetypes="csc"
       style="fill:none;stroke:#000000;stroke-width:0.628694px"
       d="m 409.51246,215.49544 c 30.37116,31.51645 40.7356,69.71443 54.75465,106.03856 13.9041,36.02818 36.44122,76.23459 39.74586,100.64582" />
    <path
       id="path2830"
       sodipodi:nodetypes="csc"
       style="fill:none;stroke:#000000;stroke-width:0.628694px"
       d="m 358.48039,218.55703 c 31.77449,49.99184 51.68788,97.03867 72.94824,141.11841 12.82215,26.58661 20.61416,46.64358 21.06889,76.6609" />
    <path
       id="path2832"
       sodipodi:nodetypes="csc"
       style="fill:none;stroke:#000000;stroke-width:0.628694px"
       d="m 307.06631,226.40563 c 39.96123,58.19803 54.29339,83.54793 76.56659,150.43909 5.55251,16.67583 18.40204,57.49537 17.01806,75.28115" />
    <path
       id="path2834"
       sodipodi:nodetypes="cc"
       style="fill:none;stroke:#000000;stroke-width:0.628694px"
       d="m 252.10938,238.98766 c 53.35817,59.44397 73.03523,171.92281 81.31576,237.72833" />
    <path
       id="path2836"
       sodipodi:nodetypes="cc"
       style="fill:none;stroke:#000000;stroke-width:0.628694px"
       d="m 193.12223,253.57371 c 36.50523,30.89932 72.65046,162.27806 77.64899,250.35252" />
    <path
       id="path2838"
       sodipodi:nodetypes="cc"
       style="fill:none;stroke:#000000;stroke-width:0.628694px"
       d="m 483.83432,258.8198 c -101.11031,-2.37985 -218.51346,23.07249 -313.7459,52.77067" />
    <path
       id="path2840"
       sodipodi:nodetypes="cc"
       style="fill:none;stroke:#000000;stroke-width:0.628694px"
       d="m 501.28038,305.96336 c -72.11923,-5.21213 -219.08353,23.90303 -315.43451,52.13617" />
    <path
       id="path2842"
       sodipodi:nodetypes="cc"
       style="fill:none;stroke:#000000;stroke-width:0.628694px"
       d="M 524.04473,354.64431 C 415.23322,348.01264 299.2219,375.89825 197.70775,409.09141" />
    <path
       id="path2844"
       sodipodi:nodetypes="cc"
       style="fill:none;stroke:#000000;stroke-width:0.628694px"
       d="m 552.5688,407.30646 c -121.99129,-16.36519 -241.34975,21.787 -344.56639,59.6765" />
    <path
       id="path2846"
       sodipodi:nodetypes="ccc"
       style="fill:none;stroke:#000000;stroke-width:0.628694px"
       d="m 486.89902,426.40868 c 3.22702,8.11918 9.04747,13.02562 17.42227,10.18205" />
    <path
       id="path2848"
       sodipodi:nodetypes="cc"
       style="fill:none;stroke:#000000;stroke-width:0.628694px"
       d="m 439.83286,439.60293 c 0.42978,3.71486 3.29139,6.55933 7.07991,6.16426" />
    <path
       id="path3731"
       sodipodi:nodetypes="ccssssc"
       style="fill:#000000;fill-opacity:0.17262;stroke-width:0.628694"
       d="m 479.78662,252.76145 c -131.50438,-20.11051 -208.30692,42.46205 -306.4067,66.76713 -4.47979,-7.94906 -8.50405,-20.03962 -16.26554,-31.66655 -7.03179,-10.53983 -17.61814,-18.22387 -17.18337,-18.81614 1.34661,-1.82484 99.82792,-30.60557 162.24165,-41.00213 37.04634,-6.17094 111.14575,-15.47626 141.3257,-11.89011 7.23309,0.85993 32.38226,28.04035 36.29074,36.60734 z" />
    <path
       id="path3735"
       sodipodi:nodetypes="cccc"
       style="fill:#000000;fill-opacity:0.17262;stroke-width:0.628694"
       d="m 554.02591,417.48335 -22.52638,0.84876 c 5.13825,7.06718 12.07518,12.82684 17.39038,13.33576 4.21149,-0.96345 6.69756,-4.52531 5.136,-14.18452 z" />
    <path
       id="path3737"
       sodipodi:nodetypes="cscc"
       style="fill:#000000;fill-opacity:0.17262;stroke-width:0.628694"
       d="m 516.71359,419.20705 c -43.82502,11.2232 -127.36828,36.26236 -127.92911,36.44566 -1.10482,0.36188 -21.11277,8.64015 -31.16199,11.19172 46.33754,-29.06533 98.12836,-49.61279 159.08952,-47.63557 z" />
  </g>
  <metadata
     id="metadata52">
    <rdf:RDF>
      <cc:Work>
        <dc:format>image/svg+xml</dc:format>
        <dc:type
           rdf:resource="http://purl.org/dc/dcmitype/StillImage" />
        <cc:license
           rdf:resource="http://creativecommons.org/publicdomain/zero/1.0/" />
        <dc:publisher>
          <cc:Agent
             rdf:about="http://openclipart.org/">
            <dc:title>Openclipart</dc:title>
          </cc:Agent>
        </dc:publisher>
        <dc:title>Quilt</dc:title>
        <dc:date>2010-06-07T04:29:25</dc:date>
        <dc:description />
        <dc:source>https://openclipart.org/detail/64777/quilt-by-deluge</dc:source>
        <dc:creator>
          <cc:Agent>
            <dc:title>Deluge</dc:title>
          </cc:Agent>
        </dc:creator>
        <dc:subject>
          <rdf:Bag>
            <rdf:li>blanket</rdf:li>
            <rdf:li>quilt</rdf:li>
          </rdf:Bag>
        </dc:subject>
      </cc:Work>
      <cc:License
         rdf:about="http://creativecommons.org/publicdomain/zero/1.0/">
        <cc:permits
           rdf:resource="http://creativecommons.org/ns#Reproduction" />
        <cc:permits
           rdf:resource="http://creativecommons.org/ns#Distribution" />
        <cc:permits
           rdf:resource="http://creativecommons.org/ns#DerivativeWorks" />
      </cc:License>
    </rdf:RDF>
  </metadata>
</svg>
