<?xml version="1.0" encoding="UTF-8" standalone="no"?>
<svg
   xmlns:dc="http://purl.org/dc/elements/1.1/"
   xmlns:cc="http://creativecommons.org/ns#"
   xmlns:rdf="http://www.w3.org/1999/02/22-rdf-syntax-ns#"
   xmlns:svg="http://www.w3.org/2000/svg"
   xmlns="http://www.w3.org/2000/svg"
   xmlns:sodipodi="http://sodipodi.sourceforge.net/DTD/sodipodi-0.dtd"
   xmlns:inkscape="http://www.inkscape.org/namespaces/inkscape"
   height="88mm"
   id="Layer_1"
   inkscape:version="1.0.2-2 (e86c870879, 2021-01-15)"
   sodipodi:docname="yarn.svg"
   sodipodi:version="0.32"
   style="overflow:visible"
   version="1.0"
   viewBox="0 0 472.44092 332.59843"
   width="125mm"
   xml:space="preserve"><metadata
   id="metadata2"><rdf:RDF><cc:Work
       rdf:about=""><dc:title>Lana</dc:title><dc:description /><dc:subject><rdf:Bag><rdf:li>unsorted</rdf:li></rdf:Bag></dc:subject><dc:publisher><cc:Agent
           rdf:about="http://www.openclipart.org"><dc:title>Architetto Francesco Rollandin</dc:title></cc:Agent></dc:publisher><dc:creator><cc:Agent><dc:title>Architetto Francesco Rollandin</dc:title></cc:Agent></dc:creator><dc:rights><cc:Agent><dc:title>Architetto Francesco Rollandin</dc:title></cc:Agent></dc:rights><dc:date /><dc:format>image/svg+xml</dc:format><dc:type
         rdf:resource="http://purl.org/dc/dcmitype/StillImage" /><cc:license
         rdf:resource="http://web.resource.org/cc/PublicDomain" /><dc:language>en</dc:language></cc:Work><cc:License
       rdf:about="http://web.resource.org/cc/PublicDomain"><cc:permits
         rdf:resource="http://web.resource.org/cc/Reproduction" /><cc:permits
         rdf:resource="http://web.resource.org/cc/Distribution" /><cc:permits
         rdf:resource="http://web.resource.org/cc/DerivativeWorks" /></cc:License></rdf:RDF></metadata>
<defs
   id="defs88" />
<sodipodi:namedview
   bordercolor="#666666"
   borderopacity="1.0"
   id="base"
   inkscape:current-layer="g3"
   inkscape:cx="62.101201"
   inkscape:cy="144.7114"
   inkscape:pageopacity="0.0"
   inkscape:pageshadow="2"
   inkscape:window-height="1017"
   inkscape:window-width="1920"
   inkscape:window-x="-8"
   inkscape:window-y="-8"
   inkscape:zoom="1.0733506"
   pagecolor="#ffffff"
   inkscape:document-rotation="0"
   showgrid="false"
   inkscape:window-maximized="1"
   units="mm" />

<g
   id="g3">
	<path
   d="M 445.10771,18.090908 C 411.43907,1.4605564 362.53837,6.5896534 343.62369,42.226524 c -18.88603,35.589728 1.02306,74.647336 17.4238,107.186086 12.31869,24.44339 8.7638,53.49487 -10.72321,73.72798 -12.80006,13.28991 -45.7094,30.8921 -62.47404,13.77519 21.03132,-17.15799 50.68572,-32.38121 53.29059,-63.85471 1.49066,-18.0163 -33.26603,-61.59694 -42.3353,-33.43183 35.73765,-19.08019 40.25918,36.44881 29.04632,56.25573 -13.15327,23.22078 -39.61201,37.48192 -62.1871,43.54064 -9.3385,2.50784 -31.48353,2.02763 -27.38966,-11.49711 24.3854,31.84346 76.20541,-18.56754 85.3772,-40.381 14.80616,-35.21877 -30.54743,-52.06853 -29.98956,-25.99764 6.26879,-10.6379 16.46483,-13.70304 25.40473,-4.13602 13.28963,14.22439 -2.07905,36.55908 -11.32617,47.90519 -9.7058,11.90599 -23.95794,23.32754 -40.07046,23.8741 -1.94554,-14.15578 -1.50451,-31.86555 2.45808,-47.56631 5.0629,-20.07495 25.99563,-30.18554 29.71237,-46.74591 -32.17476,18.00083 -34.18522,49.3229 -38.9861,82.29179 -0.29048,1.97906 3.25734,11.05691 1.84326,12.39449 -5.79101,5.47676 -19.76573,-0.9265 -23.53552,-5.90225 -3.11853,-4.12048 -5.20236,-23.94445 -8.46262,-31.43057 -5.30344,-12.17342 -9.15488,-26.37787 -19.86953,-34.95694 -9.08231,-9.82665 -26.34839,-34.0247 -79.83809,-35.96308 -8.67011,-3.22797 -19.77934,-0.26021 -28.23754,2.60842 -15.402856,5.22414 -34.784268,11.56254 -47.713137,22.63367 -30.627314,26.21245 -49.3059538,70.48247 -31.46624,110.49266 6.213698,13.94386 15.781497,25.84824 26.718604,36.21661 6.266105,5.94183 25.448491,10.50162 28.718164,14.30616 1.369858,0.2269 2.694265,0.61924 3.96978,1.16796 6.027673,9.41197 32.256989,11.65797 41.021199,9.15619 0,0 14.46909,2.45429 23.1274,4.1421 3.65603,-5.56022 27.4867,-13.82305 35.61628,-17.63175 22.08351,-10.35321 30.66419,-22.85232 44.53865,-44.70792 12.5838,-19.82655 4.01506,-17.54955 25.88696,-15.26254 14.82565,1.55113 14.13494,3.28925 26.76404,7.42523 26.24582,8.58401 57.28648,6.04924 79.29044,-11.78348 38.70107,-31.36677 25.39248,-92.37532 5.58468,-129.74652 -15.22446,-28.718778 -22.1517,-76.127177 21.02269,-85.007691 11.25853,-2.317182 21.89379,-3.275163 33.20583,-0.235257 10.06193,2.700573 39.72773,32.261091 45.03268,16.726397 2.47027,-7.240284 -13.32254,-21.505757 -18.96545,-23.723681"
   id="path5"
   sodipodi:nodetypes="ccccccccccccccccccccccccccccccccccccccccc"
   style="stroke-width:1.89829" />

	<path
   d="m 277.90413,182.26764 c -1.82244,4.34876 -13.46182,47.72562 -1.32573,45.43094 2.45886,-0.46538 -0.45626,-23.89953 1.04765,-29.99071 3.94526,-15.97695 16.20539,-30.27359 18.3656,-46.16352 -8.80282,8.3424 -13.20392,20.26138 -18.08752,30.72329"
   id="path7"
   style="stroke-width:1.89829" />

	<path
   d="m 306.6436,146.09713 c 32.80251,3.31208 20.01398,40.0178 8.27804,56.98672 -11.81385,17.07819 -57.13847,50.31561 -76.64499,24.84247 -4.09388,13.52473 18.05115,14.00494 27.38966,11.49711 23.99323,-6.4404 51.43165,-21.97798 64.2606,-47.20583 7.17994,-14.11817 9.12821,-31.49314 -1.05017,-44.57333 -9.29164,-11.94482 -33.541,-18.04133 -32.88509,3.90008 3.30493,-2.78187 7.38966,-3.34226 10.65195,-5.44722"
   id="path9"
   style="fill:#40f200;stroke-width:1.89829" />

	<path
   d="m 298.06317,140.6677 c -28.98481,18.77578 -34.50108,58.63737 -30.39297,88.52169 2.17163,0.27943 6.54889,-0.55706 8.59342,-1.32457 -27.40609,-18.39245 26.5154,-73.06034 21.79955,-87.19712"
   id="path11"
   style="fill:#40f200;stroke-width:1.89829" />

	

	

	<path
   d="m 402.08857,14.075027 c 13.5123,-1.949496 33.04936,0.968842 44.23001,9.192755 6.15032,4.525398 19.39818,23.066155 2.86955,19.205526 -4.82485,-1.124947 -16.33301,-16.10169 -24.02489,-19.096881 -8.30593,-3.236956 -16.27918,-4.141041 -24.81438,-3.975263 -18.09058,0.354082 -31.69969,7.348999 -42.55491,22.001402 -28.23825,38.107556 17.79612,94.540154 21.95154,135.955064 3.04773,30.414 -14.66595,68.61565 -48.85971,73.24094 -16.95863,2.29913 -44.48892,6.4425 -57.37654,-7.73752 9.53042,-6.26038 29.83253,5.3123 42.77754,2.57238 32.87711,-6.96095 58.26506,-37.23533 56.93937,-71.44814 -1.53381,-39.7461 -42.79323,-71.55647 -31.71405,-114.980071 7.14912,-28.034319 32.09807,-46.45227 60.57647,-44.930192"
   id="path17"
   style="fill:#40f200;stroke-width:1.89829" />

	

	

	

	

	<path
   d="m 130.94675,126.85938 c -17.37782,-2.01132 -35.924131,8.05211 -50.63582,14.08251 -24.066469,9.86707 -41.091279,30.42528 -47.896275,55.05303 -9.772579,35.34835 3.698329,70.62162 27.381667,99.33945 C 28.889426,269.1111 9.0718139,221.67541 28.841216,182.17506 42.746687,154.39777 99.142588,113.69902 130.94675,126.85938"
   id="path27"
   style="fill:#40f200;stroke-width:1.89829" />

	<path
   d="m 137.3121,131.4046 c -11.19077,10.80721 -41.057276,14.46967 -57.643076,21.7799 -18.995583,8.36788 -30.779807,32.47778 -35.057495,52.10376 -8.078721,37.07428 10.907908,67.75601 31.6896,97.01911 C 47.38185,300.45103 30.224431,225.42623 35.035334,201.39585 41.246553,170.36779 61.407559,156.0943 86.904217,146.13608 103.92924,139.48374 116.28923,128.94664 137.3121,131.4046"
   id="path29"
   style="fill:#40f200;stroke-width:1.89829" />

	<path
   d="m 145.24295,137.05823 c 9.75966,-2.25689 20.89875,-1.15893 28.19296,6.38349 C 100.93789,138.89497 38.451499,195.08087 60.393111,270.17117 44.152424,240.8545 43.198151,203.4442 62.38959,174.7284 c 14.689839,-21.97472 58.61442,-36.06774 82.85336,-37.67017"
   id="path31"
   style="fill:#40f200;stroke-width:1.89829" />

	<path
   d="m 146.60552,149.30606 c 7.62782,-2.78165 15.84895,-2.67352 23.62306,-0.40614 -45.22708,-0.26855 -81.76777,29.03333 -96.989677,69.79549 -9.742238,26.07587 1.654598,50.56575 9.163796,74.91903 -16.459675,-10.90114 -25.285811,-44.58436 -23.11154,-64.23171 5.110078,-46.22207 44.197891,-73.72529 87.314361,-80.07667"
   id="path33"
   style="fill:#40f200;stroke-width:1.89829" />

	<path
   d="m 149.85712,156.42986 c 0.97642,4.58096 0.25905,9.88614 0.3817,14.58688 -4.56007,-3.2691 -7.59342,-7.8927 -9.84222,-13.00365 3.22271,-2.05405 6.12598,-2.03757 9.46052,-1.58323"
   id="path35"
   style="fill:#00cc00;stroke-width:1.89829" />

	<path
   d="m 157.09247,153.84478 c 5.40982,18.67456 5.36619,40.80619 6.64756,60.91842 0.97229,15.25216 1.52428,31.0866 -1.41476,46.2446 -2.02343,10.42786 -12.61071,50.66076 -24.46354,54.2226 -12.50307,3.75917 -1.09989,-16.11808 0.82528,-20.39357 6.04162,-13.43303 11.75767,-24.62513 14.76293,-38.29488 6.30019,-28.63326 -1.45555,-61.90087 1.5165,-92.15782 0.45566,-4.64932 0.67404,-8.03677 2.12603,-10.53935"
   id="path37"
   style="fill:#40f200;stroke-width:1.89829" />

	<path
   d="m 167.5607,154.15426 c 1.1289,33.92239 8.551,62.93068 6.22647,98.75905 -1.18621,18.27136 -12.78626,34.01654 -14.83051,50.20847 -2.5186,19.94749 9.94417,-10.11356 13.5343,-16.22861 -2.40808,19.54982 -7.86272,27.77264 -26.89017,26.70333 26.6506,-51.84975 26.57839,-103.12686 17.06117,-159.99665 1.61592,-0.0171 3.35522,0.58945 4.89874,0.55441"
   id="path39"
   style="fill:#00cc00;stroke-width:1.89829" />

	<path
   d="m 135.94342,160.13256 c 4.65218,9.90349 16.73478,15.37429 14.23212,26.91783 -7.73775,-3.41865 -26.091,-20.72393 -14.23212,-26.91783"
   id="path41"
   style="fill:#00cc00;stroke-width:1.89829" />

	<path
   d="m 126.92548,165.07345 c 0.69438,15.00611 31.8833,27.96338 24.54229,42.01614 -7.15492,13.70403 -51.01289,-36.67011 -24.54229,-42.01614"
   id="path43"
   style="fill:#00cc00;stroke-width:1.89829" />

	<path
   d="m 192.00545,217.47381 c -0.80461,18.18249 -4.54383,36.12662 -4.75109,54.35927 -0.36519,-32.9127 -11.69413,-88.54391 6.93667,-116.52688 -0.0509,20.63929 0.0218,42.01624 -2.18558,62.16761"
   id="path45"
   style="fill:#00cc00;stroke-width:1.89829" />

	<path
   d="m 207.13029,162.18108 c -4.05565,43.77064 3.99435,98.07207 -19.3569,137.37694 -0.27077,-27.50665 7.91199,-58.77228 9.79584,-87.13608 0.92386,-13.9046 -3.2838,-35.81558 0.85794,-48.21468 2.56112,-7.66352 2.68143,-12.58006 8.70312,-2.02618"
   id="path47"
   style="fill:#40f200;stroke-width:1.89829" />

	<path
   d="m 113.47472,172.24395 c -0.50522,15.52058 14.52836,34.07045 28.17916,40.49329 10.70512,5.03729 14.70255,12.56942 -0.7906,8.26027 -11.82119,-3.28767 -49.23599,-40.03734 -27.38856,-48.75356"
   id="path49"
   style="fill:#00cc00;stroke-width:1.89829" />

	<path
   d="m 101.14276,181.29243 c 4.77852,12.63658 10.90732,25.62461 21.55125,34.39064 8.95499,7.37998 28.9351,9.67949 28.27791,21.93427 -13.05785,-2.66113 -79.406021,-41.82293 -49.82916,-56.32491"
   id="path51"
   style="fill:#00cc00;stroke-width:1.89829" />

	<path
   d="m 183.30498,169.60193 c 0.82257,12.05718 -0.80303,24.26425 -2.2393,35.8545 -2.34006,-9.54365 -5.68378,-31.72046 2.2393,-35.8545"
   id="path53"
   style="fill:#00cc00;stroke-width:1.89829" />

	<path
   d="m 220.65187,180.74724 c -11.05841,33.3694 0.71535,69.48484 -20.55075,101.52534 3.03448,-39.61372 9.94026,-77.40591 11.03871,-117.32886 4.22687,4.36034 7.50361,9.86321 9.51204,15.80352"
   id="path55"
   style="fill:#40f200;stroke-width:1.89829" />

	<path
   d="m 91.815823,196.01434 c 4.593742,25.25307 64.066447,42.24978 57.197297,58.63906 -21.28381,1.22721 -57.406446,-21.69423 -63.720306,-43.58571 -2.192728,-7.60511 -1.369986,-20.57279 6.523009,-15.05335"
   id="path57"
   style="fill:#00cc00;stroke-width:1.89829" />

	<path
   d="m 113.7868,248.64627 c 10.98135,6.04386 21.0509,12.21724 33.91215,11.15042 -4.90146,19.25689 -84.532917,-18.04764 -67.859541,-48.50348 9.208753,14.01426 21.827271,26.63222 33.947391,37.35306"
   id="path59"
   style="fill:#00cc00;stroke-width:1.89829" />

	<path
   d="m 227.49736,205.24046 c -2.74806,32.4579 -5.45926,55.1649 -24.38667,82.01962 17.95687,-28.23782 23.64275,-66.93642 20.01283,-99.94368 4.41851,5.32141 6.07095,11.86019 4.37384,17.92406"
   id="path61"
   style="fill:#40f200;stroke-width:1.89829" />

	<path
   d="m 181.62433,208.79468 c -0.55745,4.08702 -0.44878,3.2643 0,0"
   id="path63"
   style="fill:#00cc00;stroke-width:1.89829" />

	<path
   d="m 89.291214,247.25448 c 16.296126,11.81002 33.551246,23.11696 54.203176,24.34747 -4.63948,15.73898 -79.943072,-11.29984 -67.722632,-38.79515 4.199586,5.09437 8.718251,9.92169 13.519456,14.44768"
   id="path65"
   style="fill:#00cc00;stroke-width:1.89829" />

	<path
   d="m 233.69022,225.83378 c -1.16766,7.24939 -1.85924,16.1244 -5.40429,21.04823 3.4357,-13.07584 5.07192,-26.66853 3.01762,-40.10554 3.33785,5.90259 4.22747,12.7365 2.38667,19.05731"
   id="path67"
   style="fill:#40f200;stroke-width:1.89829" />

	<path
   d="m 181.02714,230.52814 c 0.58574,22.4536 7.73441,54.18682 -6.48134,73.41651 4.70485,-24.41102 3.09107,-49.76438 6.48134,-73.41651"
   id="path69"
   style="fill:#00cc00;stroke-width:1.89829" />

	<path
   d="m 99.029083,268.51327 c 11.338677,7.443 25.915707,12.4309 39.481567,15.02241 -7.39785,16.31223 -64.419332,-8.8666 -62.55491,-28.44478 6.845206,5.76792 14.75894,11.03178 23.073343,13.42237"
   id="path71"
   style="fill:#00cc00;stroke-width:1.89829" />

	<path
   d="m 92.040953,280.09725 c 12.290327,5.75744 28.298447,14.3514 41.260377,14.03567 -9.34893,8.39145 -48.989673,-3.36121 -51.174495,-19.24575 3.004719,2.86536 7.026218,3.43379 9.914118,5.21008"
   id="path73"
   style="fill:#00cc00;stroke-width:1.89829" />

	<path
   d="m 116.93916,300.30674 c 4.26549,0.48524 8.80849,1.08765 12.80492,1.97783 -11.77146,0.62077 -40.35338,1.11385 -42.452086,-12.922 9.086986,5.48901 19.212836,9.04307 29.647166,10.94417"
   id="path75"
   style="fill:#00cc00;stroke-width:1.89829" />

	<path
   d="m 84.742142,299.40505 c 1.025081,-0.14275 -2.483605,0.32902 0,0"
   id="path77"
   style="fill:#00cc00;stroke-width:1.89829" />

	<path
   d="m 127.20546,307.63279 c -4.76887,12.15953 -36.443431,8.04278 -35.649375,-5.82085 11.342135,5.14048 23.650775,3.71575 35.649375,5.82085"
   id="path79"
   style="fill:#00cc00;stroke-width:1.89829" />

	<path
   d="m 201.99932,289.50933 c -2.15658,3.11128 -2.33325,5.37927 -5.65595,7.23834 1.83187,-2.3602 4.13701,-4.98632 5.65595,-7.23834"
   id="path81"
   style="fill:#00cc00;stroke-width:1.89829" />

	

	

</g>


  
</svg>
